<svg id="Слой_1" data-name="Слой 1" xmlns="http://www.w3.org/2000/svg" xmlns:xlink="http://www.w3.org/1999/xlink" viewBox="0 0 302 144"><defs><style>.cls-1{fill:url(#Безымянный_градиент_22);}.cls-2{fill:#fefefe;}.cls-3{fill:url(#Безымянный_градиент_22-2);}.cls-4{fill:url(#Безымянный_градиент_22-3);}.cls-5{fill:url(#Безымянный_градиент_22-4);}.cls-6{fill:url(#Безымянный_градиент_22-5);}</style><linearGradient id="Безымянный_градиент_22" x1="104.66" y1="29.5" x2="20.31" y2="113.85" gradientUnits="userSpaceOnUse"><stop offset="0" stop-color="#00e5ff"/><stop offset="1" stop-color="#0fb3e3"/></linearGradient><linearGradient id="Безымянный_градиент_22-2" x1="338.33" y1="74.88" x2="154.33" y2="74.88" xlink:href="#Безымянный_градиент_22"/><linearGradient id="Безымянный_градиент_22-3" x1="338.33" y1="80" x2="154.33" y2="80" xlink:href="#Безымянный_градиент_22"/><linearGradient id="Безымянный_градиент_22-4" x1="338.33" y1="80.32" x2="154.33" y2="80.32" xlink:href="#Безымянный_градиент_22"/><linearGradient id="Безымянный_градиент_22-5" x1="338.33" y1="72.88" x2="154.33" y2="72.88" xlink:href="#Безымянный_градиент_22"/></defs><title>Монтажная область 2</title><path class="cls-1" d="M121,42.22v61.61a7.44,7.44,0,0,1-3.77,6.55L61.9,140.81a6.75,6.75,0,0,1-6.68-.13L4.72,110.43A7.47,7.47,0,0,1,1.18,104V42.28a7.56,7.56,0,0,1,.45-2.6,7.34,7.34,0,0,1,3.16-3.86l53.46-31A6.4,6.4,0,0,1,62.57,4h0A6.69,6.69,0,0,1,65,4.83c10.4,6.09,41.81,24.68,52.46,31A7.51,7.51,0,0,1,121,42.22Z"/><path class="cls-2" d="M62.63,3.92c-4.74.35-4.74,5.27-4.74,5.27V27.73c0,8-5.3,8-5.3,8h-45c-2.73,0-3.45.93-5,2.15A6.09,6.09,0,0,1,4,36.17l55-32A7.06,7.06,0,0,1,62.63,3.92Z"/><polygon class="cls-2" points="60.41 42.97 86.93 57.79 86.93 70.09 78.98 65.61 78.98 62.11 60.48 51.77 43.23 61.75 43.23 65.99 70.04 81.57 62.71 85.84 35.28 70.27 35.28 57.52 60.41 42.97"/><polygon class="cls-2" points="61.8 102.56 35.28 87.73 35.28 75.43 43.23 79.91 43.23 83.42 61.73 93.76 78.98 83.77 78.98 79.54 52.17 63.96 59.5 59.69 86.93 75.26 86.93 88.01 61.8 102.56"/><path class="cls-3" d="M181.28,56.43A8.82,8.82,0,0,1,183,53.2a5.09,5.09,0,0,1,3.91-1.45,4.61,4.61,0,0,1,3.5,1.49,5,5,0,0,1,1.4,3.57,5.69,5.69,0,0,1-.31,1.68c-.21.65-.46,1.34-.74,2l-12.53,32a18.94,18.94,0,0,1-1.74,3.73A4.58,4.58,0,0,1,172.59,98a4.51,4.51,0,0,1-3.78-1.77A15.65,15.65,0,0,1,167,92.5l-12.28-32c-.17-.42-.38-1-.65-1.89a6.93,6.93,0,0,1-.4-1.84A5.12,5.12,0,0,1,155,53.27a4.55,4.55,0,0,1,3.54-1.52,5,5,0,0,1,3.84,1.39,10.41,10.41,0,0,1,1.74,3.29l8.56,23.22Z"/><path class="cls-4" d="M202.09,83.26a4.81,4.81,0,0,0,1.55,3.54c1.37,1.35,3.43,2,6.2,2a13.63,13.63,0,0,0,5.9-1.58,14.24,14.24,0,0,1,4-1.59,3.85,3.85,0,0,1,2.88,1.17A4.29,4.29,0,0,1,223.8,90q0,3.48-4.68,5.75A23.7,23.7,0,0,1,208.61,98a15.81,15.81,0,0,1-12.26-5.15A18.45,18.45,0,0,1,191.67,80a18.24,18.24,0,0,1,4.78-12.69A15.66,15.66,0,0,1,208.61,62,14.51,14.51,0,0,1,220,67.19a17.29,17.29,0,0,1,4.28,11.7c0,1.65-.37,2.79-1.12,3.42a5.52,5.52,0,0,1-3.6,1Zm12.53-6.83A5.69,5.69,0,0,0,213,72.57a6,6,0,0,0-4.59-2.16,5.77,5.77,0,0,0-4.44,2,6,6,0,0,0-1.83,4Z"/><path class="cls-5" d="M230.73,68.39a5.26,5.26,0,0,1,1.34-3.64,4.46,4.46,0,0,1,3.5-1.49,5.13,5.13,0,0,1,3.16,1,5,5,0,0,1,1.68,2.15q2.35-3.8,8.31-3.8a12.39,12.39,0,0,1,8.5,2.79q3.52,3.09,3.53,8.92V92.81a5.36,5.36,0,0,1-1.33,3.71A4.49,4.49,0,0,1,255.91,98a4.55,4.55,0,0,1-3.47-1.45,5.25,5.25,0,0,1-1.36-3.74V77.06a6.58,6.58,0,0,0-1.4-4.34,5.4,5.4,0,0,0-7.81,0,6.35,6.35,0,0,0-1.46,4.34V92.81a5.41,5.41,0,0,1-1.33,3.71A4.49,4.49,0,0,1,235.57,98a4.54,4.54,0,0,1-3.47-1.45,5.26,5.26,0,0,1-1.37-3.74Z"/><path class="cls-6" d="M300,92.18a5.32,5.32,0,0,1-1.33,3.7,4.5,4.5,0,0,1-3.51,1.49,4.38,4.38,0,0,1-2.76-1,5.9,5.9,0,0,1-1.77-2.21A10.05,10.05,0,0,1,282.32,98a13.28,13.28,0,0,1-10.6-5.25A19.36,19.36,0,0,1,267.38,80a19.33,19.33,0,0,1,4.31-12.75A13.28,13.28,0,0,1,282.32,62a10.93,10.93,0,0,1,8,2.78V53a5.33,5.33,0,0,1,1.34-3.7,4.8,4.8,0,0,1,7,0A5.34,5.34,0,0,1,300,53ZM277.05,80A10,10,0,0,0,278.82,86a6.1,6.1,0,0,0,9.74,0,10,10,0,0,0,1.76-6,9.62,9.62,0,0,0-1.67-5.88,5.85,5.85,0,0,0-5-2.54A5.72,5.72,0,0,0,278.82,74,9.84,9.84,0,0,0,277.05,80Z"/></svg>